<svg width="768" height="194" viewBox="0 0 768 194" fill="none" xmlns="http://www.w3.org/2000/svg">
<path d="M50.2539 53H30.3639V144H42.8439V79.65L53.5039 144H67.0239L76.9039 78.74V144H90.424V53H70.5339L60.7839 117.61L50.2539 53ZM132.546 53H111.616L97.056 144H110.186L112.656 127.49H130.206L132.676 144H147.106L132.546 53ZM121.366 69.12L128.256 115.14H114.476L121.366 69.12ZM151.945 74.84C151.945 100.84 179.895 104.35 179.895 123.07C179.895 129.57 177.035 131.91 172.485 131.91C167.935 131.91 165.075 129.57 165.075 123.07V116.57H151.555V122.16C151.555 136.72 158.835 145.04 172.875 145.04C186.915 145.04 194.195 136.72 194.195 122.16C194.195 96.16 166.245 92.65 166.245 73.93C166.245 67.43 168.845 64.96 173.395 64.96C177.945 64.96 180.545 67.43 180.545 73.93V77.7H194.065V74.84C194.065 60.28 186.915 51.96 173.005 51.96C159.095 51.96 151.945 60.28 151.945 74.84ZM198.228 66H213.178V144H227.478V66H242.428V53H198.228V66ZM263.026 66H287.726V53H248.726V144H287.726V131H263.026V104.35H282.656V91.35H263.026V66ZM341.048 144C339.618 140.62 339.488 137.37 339.488 132.95V118.91C339.488 109.42 337.148 102.53 329.998 99.54C336.368 96.55 339.358 90.44 339.358 81.08V73.93C339.358 59.89 332.988 53 318.168 53H296.588V144H310.888V106.95H315.828C322.328 106.95 325.188 110.07 325.188 118.52V132.82C325.188 140.23 325.708 141.66 326.488 144H341.048ZM317.778 66C322.848 66 325.058 68.86 325.058 75.36V84.33C325.058 91.61 321.808 93.95 316.478 93.95H310.888V66H317.778ZM565.048 66H588.578V53H550.748V144H565.048V106.43H583.508V93.43H565.048V66ZM608.565 73.93C608.565 67.43 611.425 64.96 615.975 64.96C620.525 64.96 623.385 67.43 623.385 73.93V123.07C623.385 129.57 620.525 132.04 615.975 132.04C611.425 132.04 608.565 129.57 608.565 123.07V73.93ZM594.265 122.16C594.265 136.72 601.935 145.04 615.975 145.04C630.015 145.04 637.685 136.72 637.685 122.16V74.84C637.685 60.28 630.015 51.96 615.975 51.96C601.935 51.96 594.265 60.28 594.265 74.84V122.16ZM691.438 144C690.008 140.62 689.878 137.37 689.878 132.95V118.91C689.878 109.42 687.538 102.53 680.388 99.54C686.758 96.55 689.748 90.44 689.748 81.08V73.93C689.748 59.89 683.378 53 668.558 53H646.978V144H661.278V106.95H666.218C672.718 106.95 675.578 110.07 675.578 118.52V132.82C675.578 140.23 676.098 141.66 676.878 144H691.438ZM668.168 66C673.238 66 675.448 68.86 675.448 75.36V84.33C675.448 91.61 672.198 93.95 666.868 93.95H661.278V66H668.168ZM697.463 74.84C697.463 100.84 725.413 104.35 725.413 123.07C725.413 129.57 722.553 131.91 718.003 131.91C713.453 131.91 710.593 129.57 710.593 123.07V116.57H697.073V122.16C697.073 136.72 704.353 145.04 718.393 145.04C732.433 145.04 739.713 136.72 739.713 122.16C739.713 96.16 711.763 92.65 711.763 73.93C711.763 67.43 714.363 64.96 718.913 64.96C723.463 64.96 726.063 67.43 726.063 73.93V77.7H739.583V74.84C739.583 60.28 732.433 51.96 718.523 51.96C704.613 51.96 697.463 60.28 697.463 74.84Z" fill="white"/>
<path d="M485.385 44.8518C486.22 44.7192 487.082 44.8536 487.914 44.7009C489.181 44.4773 490.428 44.1326 491.65 43.7521C492.886 43.3469 494.075 42.5536 495.335 42.3952C500.694 41.6778 506.049 41.1514 511.426 40.5349C515.65 40.0491 519.865 39.5028 524.211 38.9644C524.12 38.2085 524.028 37.5582 523.947 36.8629C515.081 37.9008 506.307 38.9356 497.402 39.9626C497.27 39.4069 497.105 38.6494 496.925 37.9167C496.134 34.7935 494.755 32.2656 491.77 31.3763C491.574 31.3217 491.354 31.2315 491.237 31.0933C490.404 29.9191 489.323 30.1368 488.247 30.5003C487.468 30.7446 486.71 31.1101 485.92 31.3994C484.715 31.8807 484.179 31.5775 483.792 30.2875C483.33 28.6591 482.828 27.0198 482.38 25.3666C482.314 25.0888 482.364 24.6124 482.536 24.4201C484.912 21.7179 487.327 19.0265 489.724 16.3397C490.806 15.132 492.075 14.1495 492.452 12.3032C492.514 12.0131 492.94 11.7761 493.195 11.5203C493.511 12.1756 493.764 12.6786 494.046 13.2376C495.423 11.574 495.485 9.85149 494.321 8.59478C493.041 7.19983 491.258 7.24134 490.093 8.61812C489.643 9.15612 489.077 9.55588 488.578 10.0224C487.437 11.0982 486.2 12.0512 485.211 13.2559C483.963 14.8018 482.942 16.5837 481.761 18.1964C480.832 19.4275 479.797 20.581 478.756 21.6941C478.519 21.9452 477.927 21.9725 477.603 21.8247C474.352 20.3516 471.728 21.8122 470.78 25.787C470.409 27.3369 469.772 28.6397 468.604 29.554C466.829 30.9627 466.266 32.9206 466.303 35.2282C466.36 38.2047 466.289 41.1935 466.367 44.1856C466.415 46.0059 465.785 47.3491 464.571 48.549C463.613 49.493 462.689 50.5333 461.911 51.6622C461.115 52.7957 460.967 54.1193 461.418 55.3504C462.213 54.8702 462.857 54.4922 463.519 54.1096C463.576 54.2214 463.632 54.3332 463.688 54.445C462.628 56.6584 461.664 58.8889 459.727 60.4448C458.053 61.7854 456.438 63.2579 455.025 64.9308C452.814 67.506 450.766 70.2707 448.693 72.9997C446.073 76.4606 446.12 76.4063 442.771 74.137C441.529 73.3007 440.151 72.5419 438.735 72.2145C435.119 71.3415 431.945 72.5237 429.121 75.553C425.116 79.8581 421.035 84.1616 415.302 85.2075C414.867 85.2784 414.434 85.475 414.012 85.6267C410.03 87.1028 406.992 89.7454 406.539 94.7713C406.097 99.7523 403.737 103.314 400.362 106.171C398.583 107.665 397.297 109.431 396.728 111.791C396.291 113.611 395.935 115.472 395.637 117.34C394.868 122.153 393.275 126.506 390.021 129.963C389.514 130.495 389.103 131.149 388.671 131.788C387.641 133.299 387.369 134.886 388.156 136.557C389.065 138.511 389.96 140.491 390.884 142.421C391.4 143.488 391.164 144.181 390.415 145.155C386.179 150.741 380.856 155.304 377.785 162.042C377.144 163.43 377.051 164.529 377.598 165.777C377.9 166.457 378.19 167.182 378.589 167.774C379.115 168.565 378.915 169.038 378.347 169.754C374.351 174.667 370.38 179.617 366.452 184.597C365.376 185.951 365.511 186.969 366.737 188.041C367.042 188.299 367.343 188.536 367.776 188.888C367.274 189.229 366.923 189.467 366.572 189.706C366.834 190.923 367.289 191.626 368.509 191.457C369.073 191.374 369.695 191.633 370.239 191.871C371.472 192.436 372.272 192.207 373.164 191.091C376.7 186.655 380.236 182.219 383.843 177.87C385.95 175.343 386.075 175.31 388.62 176.904C390.48 178.085 392.104 178.317 393.739 176.417C393.879 176.255 394.09 176.179 394.276 176.067C398.666 173.369 402.735 170.206 405.972 165.763C406.123 165.555 406.299 165.383 406.471 165.191C406.862 165.406 407.171 165.578 407.516 165.742C409.296 166.564 411.025 167.527 412.849 168.17C417.052 169.649 421.199 167.603 423.337 163.172C424.137 161.511 423.955 160.547 422.582 159.597C421.905 159.12 421.158 158.787 420.47 158.355C418.826 157.349 417.183 156.343 415.565 155.268C415.334 155.117 415.263 154.693 415.119 154.393C415.389 154.45 415.685 154.436 415.909 154.546C417.699 155.535 419.434 156.644 421.275 157.493C422.085 157.872 423.097 157.905 423.989 157.778C427.34 157.309 430.183 155.496 432.496 152.642C435.424 149.017 435.427 145.624 432.588 142.19C430.779 139.984 428.969 137.779 427.117 135.542C427.43 135.187 427.664 134.916 427.926 134.595C428.912 135.792 429.784 136.977 430.761 138.009C432.555 139.903 434.385 141.787 436.268 143.552C437.356 144.576 438.66 144.68 440.016 143.885C444.445 141.303 448.075 137.643 450.967 133.037C452.009 131.376 452.387 129.424 451.672 127.63C450.73 125.262 449.595 122.966 448.316 120.812C447.101 118.81 445.609 117.049 444.182 115.228C443.563 114.441 443.702 113.941 444.487 113.401C444.77 113.749 445.063 114.052 445.31 114.409C447.428 117.44 449.531 120.497 451.63 123.533C453.412 126.125 454.96 126.46 457.3 124.315C459.913 121.909 462.441 119.336 464.816 116.634C466.944 114.227 467.879 111.162 467.806 107.768C467.747 104.666 466.889 101.918 465.223 99.5698C463.903 97.7217 462.451 95.9712 461.098 94.1525C460.907 93.9071 460.842 93.5237 460.713 93.1992C460.817 93.1512 460.92 93.1032 461.006 93.0599C463.507 96.2656 466.03 99.4869 468.503 102.637C469.344 102.102 469.878 101.732 470.601 101.27C469.684 104.437 468.943 107.431 469.474 110.453C470.014 113.641 468.91 116.034 466.934 118.127C465.497 119.659 463.968 121.088 462.535 122.64C460.203 125.162 458.606 128.168 458.22 131.828C457.811 135.579 458.289 139.162 459.626 142.544C460.96 145.905 463.439 147.326 466.819 146.701C466.355 142.861 464.926 139.167 465.759 134.842C466.898 138.591 466.062 142.895 469.021 145.835C470.168 143.472 471.267 141.375 472.224 139.21C472.923 137.617 472.934 136.034 472.058 134.492C471.691 133.871 471.576 133.08 471.324 132.365C471.392 132.327 471.46 132.288 471.55 132.265C472.081 133.201 472.613 134.138 473.176 135.15C474.009 134.344 474.94 133.238 474.38 132.352C473.41 130.813 472.357 129.001 470.224 129.175C470.039 129.181 469.833 129.066 469.342 128.92C469.824 128.795 469.963 128.737 470.127 128.716C472.483 128.315 474.149 129.673 475.605 131.444C476.383 132.4 477.085 132.366 478.02 131.723C480.18 130.277 481.462 128.048 482.556 125.595C483.476 123.544 483.268 121.765 481.867 120.212C481.085 119.341 480.339 118.46 479.576 117.584C479.666 117.455 479.756 117.326 479.842 117.177C481.015 118.158 482.203 119.114 483.415 120.105C484.246 118.52 483.297 117.65 483.004 116.694C483.318 116.233 483.618 115.692 483.575 115.218C483.489 114.166 483.208 113.165 483.033 112.136C482.589 109.407 482.145 106.679 481.752 103.916C481.462 101.99 481.366 99.9924 480.988 98.0894C480.602 96.1461 479.42 94.894 478.04 94.5573C478.144 95.3939 478.224 96.1947 478.325 97.0111C477.53 94.0788 475.539 93.2262 473.173 92.5765C470.081 91.715 467.085 90.4283 464.066 89.3372C464.054 89.151 464.019 88.9492 464.006 88.763C466.582 85.4821 469.183 82.2369 471.738 78.9404C472.454 77.9961 473.181 77.0068 473.645 75.8962C474.403 74.0984 475.231 72.4932 477.052 72.0203C478.428 71.6633 479.84 71.086 481.183 71.2007C483.039 71.3719 484.932 71.8706 486.648 72.6468C488.244 73.3701 489.272 72.7241 490.293 71.49C490.771 70.9023 491.232 70.3194 491.689 69.7162C493.737 66.9515 496.044 64.8357 499.424 65.3065C499.616 65.3408 499.824 65.2448 500.024 65.214C503.45 64.746 506.868 64.2376 510.29 63.8549C514.479 63.3784 518.649 63.012 522.841 62.5557C523.519 62.485 524.166 62.2328 524.898 62.0427C524.204 55.4186 525.243 48.6816 524.169 42.2403C523.355 42.4939 522.718 42.8067 522.061 42.8929C516.059 43.6716 510.058 44.4503 504.06 45.1437C500.917 45.5174 497.769 45.9764 494.639 45.9885C491.88 45.9886 489.164 45.9143 486.452 46.7447C486.08 46.8622 485.573 46.9517 485.279 46.7542C484.924 46.5304 484.617 46.0412 484.521 45.5818C484.465 45.47 485.057 44.8949 485.385 44.8518ZM394.186 172.678C393.834 172.137 393.455 171.772 393.319 171.302C392.274 167.887 389.926 165.695 387.664 163.459C386.613 162.426 385.428 161.596 384.287 160.691C383.514 160.092 383.489 159.508 384.25 158.826C384.702 158.414 385.179 158.037 385.543 157.543C386.432 156.3 387.388 155.231 388.725 154.652L388.711 154.677C388.711 154.677 388.711 154.677 388.707 154.656C390.12 152.984 391.53 151.29 393.112 149.405C394.644 155.032 396.97 159.737 402.062 162.059C399.345 165.714 396.829 169.127 394.186 172.678ZM410.88 150.944C407.415 146.893 405.275 141.529 400.644 138.518C401.133 137.991 401.592 137.513 402.067 137.011C405.265 141.363 408.433 145.638 411.653 150.006C411.401 150.282 411.185 150.548 410.88 150.944ZM412.575 118.61C413.232 119.071 413.885 119.513 414.559 119.97C413.935 120.911 413.541 120.676 412.575 118.61ZM425.433 133.304C422.041 129.466 418.693 125.659 415.276 121.785C415.647 121.33 416.122 120.722 416.457 120.277C419.614 124.387 422.726 128.445 425.937 132.647C425.861 132.751 425.645 133.017 425.433 133.304ZM443.061 112.907C439.206 108.642 435.375 104.412 431.541 100.162C431.718 99.8841 431.718 99.8841 434.083 100.639C433.965 99.7221 433.853 98.8452 433.745 97.9884C433.828 97.9249 433.91 97.8613 434.014 97.8133C436.22 103.455 440.047 107.665 443.622 112.256C443.309 112.611 443.093 112.878 443.061 112.907ZM454.398 76.8483C455.394 77.6641 456.282 78.6132 457.235 79.5035C456.542 80.1468 455.979 80.6722 455.336 81.2814C453.883 80.0787 452.402 78.8201 450.843 77.5397C452.124 75.8588 452.949 75.6658 454.398 76.8483ZM450.97 80.7087C451.819 81.5414 452.683 82.3493 453.64 83.2597C452.782 84.03 452.159 83.4335 450.97 80.7087ZM459.965 92.0873C459.663 91.9551 459.303 91.9221 459.08 91.7061C458.032 90.6932 457.031 89.626 455.905 88.4857C456.082 88.2081 456.305 87.8763 456.63 87.3707C457.849 88.8447 459.037 90.2427 460.207 91.6453C460.102 91.7988 460.034 91.9431 459.965 92.0873ZM472.432 66.5419C471.456 67.9328 470.48 69.3238 469.501 70.6946C469.409 70.592 469.302 70.5143 469.21 70.4118C470.275 69.1032 471.343 67.8148 472.407 66.5062C472.99 65.3227 473.079 63.7617 474.385 63.1067C474.557 63.0199 474.722 62.8929 474.894 62.8062C474.986 62.9087 475.099 63.0267 475.191 63.1293C474.249 64.2797 473.342 65.4209 472.432 66.5419Z" fill="white"/>
<path d="M388.82 155.322C390.107 157.305 391.686 158.918 393.734 160.114C392.646 157.763 391.574 155.619 389.118 155.098C388.965 155.074 388.867 154.826 388.729 154.672C388.748 154.899 388.718 155.159 388.82 155.322Z" fill="white"/>
</svg>
