<svg width="100" height="87" viewBox="0 0 100 87" fill="none" xmlns="http://www.w3.org/2000/svg">
<path d="M81.2335 20.2196C81.6393 20.2488 82.0302 20.4096 82.436 20.4315C83.0482 20.468 83.6605 20.468 84.2728 20.4388C84.885 20.4096 85.5121 20.2123 86.1096 20.2707C88.6841 20.5484 91.2512 20.9065 93.8184 21.228C95.847 21.4765 97.8756 21.7103 99.9559 21.9514C99.9706 21.6299 99.9854 21.3522 100 21.0599C95.7437 20.5338 91.5463 20.0223 87.2751 19.4961C87.2604 19.2477 87.2383 18.9262 87.2087 18.6046C87.0833 17.2309 86.6407 16.0397 85.3129 15.3529C85.2318 15.309 85.1285 15.2505 85.0916 15.1775C84.7965 14.6075 84.2728 14.5856 83.7343 14.6148C83.3433 14.6367 82.9597 14.6952 82.5687 14.739C81.9638 14.8048 81.7352 14.6294 81.6614 14.0521C81.5729 13.3287 81.4696 12.6053 81.3958 11.8745C81.3811 11.7503 81.4475 11.5603 81.5434 11.5019C82.8786 10.6396 84.2211 9.79192 85.5637 8.94426C86.1612 8.56428 86.8473 8.2939 87.1645 7.57778C87.2161 7.46086 87.43 7.41702 87.5776 7.33663C87.6809 7.63624 87.7546 7.87007 87.8432 8.13314C88.6251 7.5997 88.7874 6.89088 88.3448 6.24783C87.8579 5.53171 87.0096 5.35633 86.353 5.80939C86.1022 5.98477 85.7998 6.08707 85.5268 6.22591C84.9072 6.54013 84.2506 6.80319 83.6826 7.19779C82.9671 7.6947 82.3548 8.33044 81.6614 8.86388C81.1303 9.2731 80.5549 9.63847 79.9647 9.98191C79.8319 10.055 79.5516 10.0111 79.4115 9.91615C78.0025 8.95888 76.6525 9.2804 75.8853 10.8223C75.5829 11.4215 75.1845 11.8891 74.5649 12.1449C73.6133 12.5322 73.2002 13.2849 73.0305 14.2421C72.8166 15.4771 72.551 16.7047 72.3445 17.9397C72.2191 18.6923 71.8133 19.1819 71.1568 19.5473C70.6331 19.8323 70.1167 20.1611 69.6593 20.5411C69.1946 20.9211 69.0175 21.4545 69.1282 22.0099C69.5413 21.9003 69.8806 21.8126 70.2126 21.7249C70.2347 21.7761 70.2495 21.8272 70.2716 21.8784C69.6003 22.6749 68.9659 23.4933 67.9258 23.9244C67.0332 24.2898 66.1553 24.7356 65.3513 25.269C64.1046 26.0947 62.9243 27.0155 61.7366 27.9216C60.2244 29.0688 60.2539 29.0542 58.867 27.7535C58.3507 27.2712 57.7605 26.8182 57.1187 26.5259C55.4885 25.7805 53.9025 25.9267 52.3312 26.8693C50.1034 28.2139 47.8387 29.5438 45.065 29.3611C44.8511 29.3465 44.6372 29.3757 44.4233 29.3977C42.4315 29.5804 40.7939 30.3403 40.1816 32.3645C39.5693 34.374 38.1825 35.587 36.3678 36.4055C35.4162 36.8366 34.6637 37.4212 34.2064 38.3346C33.8523 39.0434 33.5425 39.7742 33.2474 40.5049C32.495 42.4048 31.4032 44.0271 29.5959 45.1013C29.3155 45.2693 29.0647 45.4959 28.8139 45.7078C28.209 46.2193 27.9582 46.8404 28.1943 47.6223C28.4672 48.5284 28.7254 49.4346 29.0131 50.3334C29.168 50.8303 29.0057 51.0933 28.5779 51.4149C26.1361 53.2636 23.2739 54.5717 21.2896 57.0196C20.8765 57.5238 20.7437 57.9623 20.8986 58.5396C20.9871 58.8538 21.0683 59.1826 21.2084 59.4749C21.4002 59.8549 21.2601 60.0303 20.9355 60.2641C18.6634 61.8571 16.4061 63.4794 14.1562 65.1089C13.5439 65.5547 13.5218 65.9858 14.016 66.5631C14.1341 66.7019 14.2669 66.8335 14.4365 67.0235C14.171 67.1112 13.9865 67.1696 13.8021 67.2281C13.8242 67.7542 13.9865 68.0977 14.5767 68.1561C14.8496 68.1853 15.1226 68.3534 15.3512 68.5142C15.8824 68.8795 16.2807 68.8722 16.7897 68.5069C18.811 67.06 20.8248 65.6058 22.8682 64.2028C24.0559 63.3844 24.1223 63.3844 25.1845 64.3124C25.9665 64.9993 26.7115 65.2697 27.6336 64.6632C27.7148 64.612 27.8181 64.5974 27.9066 64.5755C30.186 63.9324 32.3548 63.0702 34.2285 61.5868C34.317 61.521 34.4129 61.4625 34.5162 61.4041C34.6859 61.5283 34.8186 61.6452 34.9588 61.7402C35.726 62.2664 36.4637 62.8509 37.2677 63.3113C39.1267 64.3709 41.2438 63.969 42.5938 62.376C43.1028 61.7694 43.0954 61.3602 42.52 60.8195C42.2397 60.5564 41.9151 60.3299 41.6201 60.0814C40.9266 59.4895 40.2332 58.8976 39.5546 58.2838C39.4587 58.1961 39.4587 58.0134 39.4144 57.8746C39.5324 57.9258 39.6726 57.9477 39.7759 58.0281C40.5357 58.6273 41.266 59.2703 42.0627 59.8184C42.4094 60.0595 42.8889 60.1837 43.3167 60.2276C44.9323 60.3884 46.4076 59.9499 47.7207 59.0219C49.3878 57.8381 49.6534 56.4497 48.5985 54.7251C47.9199 53.6217 47.2486 52.5256 46.5551 51.4003C46.7322 51.2833 46.865 51.1956 47.0125 51.1006C47.3814 51.6999 47.6986 52.2844 48.0748 52.8179C48.7682 53.7971 49.4764 54.7617 50.2214 55.697C50.6493 56.2378 51.2542 56.4131 51.955 56.2377C54.2492 55.6458 56.2409 54.5278 57.9745 52.9421C58.5941 52.3721 58.9261 51.6049 58.7343 50.7937C58.4761 49.7122 58.1367 48.6454 57.6941 47.6296C57.2884 46.6724 56.7204 45.7882 56.1966 44.8821C55.968 44.4948 56.0712 44.2975 56.4843 44.1659C56.595 44.3413 56.7056 44.5021 56.7942 44.6701C57.5466 46.1462 58.2917 47.6296 59.0441 49.113C59.6785 50.3699 60.3793 50.6768 61.6407 50.0484C63.0644 49.3396 64.4513 48.5431 65.7865 47.6881C66.9815 46.9208 67.6602 45.7662 67.8963 44.3559C68.1102 43.0698 67.9331 41.8495 67.343 40.7022C66.8709 39.7961 66.3324 38.9192 65.8308 38.0277C65.7644 37.9035 65.7644 37.7427 65.7275 37.5966C65.7791 37.5893 65.8307 37.582 65.8824 37.5747C66.8045 39.1677 67.734 40.7607 68.6413 42.3245C69.0765 42.1929 69.3642 42.1052 69.7331 41.9883C69.0544 43.194 68.4643 44.3486 68.4643 45.6566C68.4643 47.0304 67.7561 47.8927 66.657 48.5504C65.8529 49.0253 65.0267 49.4565 64.23 49.9388C62.9317 50.728 61.9432 51.7949 61.4637 53.2636C60.9768 54.769 60.9104 56.2962 61.2645 57.8381C61.6186 59.3653 62.6809 60.2203 64.3185 60.3226C64.407 58.693 64.0308 57.0123 64.7611 55.317C64.9972 56.9831 64.2595 58.6711 65.4176 60.1984C66.148 59.3434 66.8266 58.598 67.4537 57.8088C67.911 57.2316 68.0438 56.5739 67.7487 55.8432C67.6307 55.5509 67.6307 55.2074 67.5791 54.8859C67.6159 54.8786 67.6528 54.8713 67.6897 54.864C67.8667 55.3097 68.0364 55.7482 68.2208 56.2231C68.6782 55.982 69.202 55.6312 69.0102 55.2001C68.6782 54.4547 68.3241 53.5998 67.3135 53.4463C67.225 53.4317 67.1364 53.3586 66.9151 53.2417C67.1512 53.2417 67.225 53.2344 67.2987 53.2417C68.4348 53.3294 69.1134 54.0675 69.6519 54.9516C69.947 55.4339 70.279 55.4851 70.7658 55.3316C71.8945 54.9663 72.6838 54.1917 73.392 53.2929C73.9895 52.5402 74.0264 51.7949 73.5026 50.9983C73.2076 50.5599 72.9199 50.1142 72.6322 49.6684C72.6838 49.6246 72.7354 49.5807 72.7871 49.5296C73.2666 50.0557 73.7387 50.5818 74.2329 51.1226C74.7493 50.5526 74.3731 50.0995 74.3141 49.6757C74.4985 49.5149 74.6829 49.3323 74.6977 49.1276C74.7419 48.6892 74.6829 48.2435 74.6903 47.7977C74.6977 46.6212 74.7124 45.452 74.7419 44.2755C74.7641 43.4498 74.8747 42.6168 74.8526 41.7983C74.8231 40.958 74.3731 40.3149 73.7534 40.0299C73.7313 40.388 73.7092 40.7314 73.6944 41.0749C73.5616 39.7815 72.6912 39.2188 71.6289 38.6927C70.2421 38.0058 68.9438 37.1581 67.6012 36.3762C67.6086 36.2959 67.6086 36.2155 67.6159 36.1351C69.0913 35.0609 70.574 34.0013 72.0346 32.9125C72.4478 32.6056 72.8682 32.2695 73.1781 31.8603C73.6797 31.2026 74.1961 30.6326 75.0886 30.6326C75.7599 30.6326 76.4755 30.5449 77.0951 30.7349C77.9582 30.998 78.7992 31.4145 79.5516 31.9114C80.245 32.3791 80.7835 32.2256 81.3589 31.8237C81.6319 31.6337 81.8974 31.4437 82.1556 31.2391C83.3359 30.3184 84.59 29.6973 86.1465 30.2453C86.235 30.2746 86.3383 30.2599 86.4342 30.2673C88.0792 30.4426 89.7316 30.6034 91.3693 30.808C93.3758 31.0565 95.3675 31.3561 97.374 31.6191C97.6912 31.663 98.0231 31.6264 98.3772 31.6264C98.5838 28.8204 99.6018 26.1605 99.6165 23.3837C99.2108 23.3983 98.8862 23.4568 98.569 23.4202C95.6847 23.0987 92.8004 22.7772 89.9234 22.4191C88.4185 22.2364 86.8989 22.0903 85.4236 21.7541C84.1252 21.4618 82.8564 21.1403 81.5138 21.1915C81.3294 21.1988 81.086 21.1768 80.9606 21.0672C80.813 20.9357 80.7024 20.7019 80.695 20.5046C80.754 20.373 81.0712 20.205 81.2335 20.2196ZM28.1426 63.1359C28.0246 62.8802 27.8771 62.6829 27.8402 62.471C27.6189 60.951 26.6894 59.7965 25.8042 58.6346C25.3985 58.1011 24.9042 57.6262 24.4395 57.1366C24.1223 56.8077 24.1592 56.5666 24.5723 56.362C24.8157 56.2451 25.0739 56.1354 25.2804 55.9674C25.7968 55.5509 26.3353 55.2074 27.0066 55.1197L26.9992 55.127C26.9992 55.127 26.9992 55.127 26.9992 55.1343V55.127C27.7959 54.5863 28.5926 54.0455 29.4926 53.4317C29.7655 55.9162 30.4811 58.1084 32.6867 59.6065C31.1302 60.8268 29.6696 61.9594 28.1426 63.1359ZM37.7325 55.9674C36.4342 53.9286 35.844 51.4806 33.9113 49.7488C34.1842 49.5807 34.4351 49.4346 34.7006 49.2738C35.8588 51.4076 37.0022 53.5048 38.1677 55.6605C38.0276 55.7555 37.9022 55.8432 37.7325 55.9674ZM41.1111 42.8287C41.384 43.0844 41.6569 43.3475 41.9299 43.6033C41.5611 43.9175 41.4061 43.7786 41.1111 42.8287ZM45.9798 50.253C44.6962 48.3092 43.4274 46.3801 42.1291 44.4144C42.3356 44.2682 42.6086 44.0636 42.8077 43.9248C43.9585 45.9562 45.1019 47.9585 46.2822 50.0411C46.2306 50.0703 46.1052 50.158 45.9798 50.253ZM55.9016 43.7348C54.4262 41.5645 52.9656 39.4088 51.4976 37.2458C51.6009 37.1508 51.6009 37.1508 52.6558 37.7208C52.6705 37.3262 52.6927 36.9608 52.7074 36.5882C52.7517 36.5735 52.7959 36.5589 52.8402 36.5443C53.4303 39.1092 54.8909 41.2503 56.204 43.5229C56.0344 43.6471 55.9163 43.7275 55.9016 43.7348ZM64.1046 30.0919C64.5029 30.5303 64.8496 31.0199 65.2259 31.4876C64.8496 31.6776 64.5398 31.8383 64.1931 32.0137C63.6103 31.3634 63.0054 30.6911 62.3784 29.9896C63.1161 29.4342 63.5218 29.4488 64.1046 30.0919ZM62.1866 31.3122C62.5259 31.7433 62.8579 32.1745 63.2341 32.6568C62.7768 32.876 62.5259 32.5691 62.1866 31.3122ZM65.5062 36.9681C65.3734 36.8878 65.2111 36.8293 65.1152 36.7124C64.7021 36.1862 64.3111 35.6382 63.8759 35.0463C63.9866 34.9513 64.112 34.8344 64.3038 34.659C64.7611 35.397 65.2037 36.0986 65.639 36.8001C65.6021 36.8585 65.5504 36.917 65.5062 36.9681ZM73.4067 27.7754C72.8387 28.2431 72.2707 28.7108 71.6953 29.1784C71.6584 29.1273 71.6142 29.0761 71.5773 29.0323C72.1822 28.6085 72.7871 28.1846 73.3846 27.7608C73.7534 27.337 73.9157 26.7086 74.5796 26.577C74.6682 26.5624 74.7567 26.5259 74.8378 26.5039C74.8747 26.5624 74.919 26.6136 74.9559 26.672C74.4469 27.0374 73.9305 27.4028 73.4067 27.7754Z" fill="white"/>
<path d="M27.0064 55.4046C27.4564 56.3546 28.0686 57.1876 28.9317 57.9038C28.6072 56.815 28.2678 55.8212 27.1613 55.3462C27.0949 55.3169 27.0654 55.2073 27.0137 55.127C27.0064 55.2293 26.9695 55.3316 27.0064 55.4046Z" fill="white"/>
<path d="M18.3756 47.5273L5.26704 43.0406L19.2092 44.809L19.2904 44.8163L19.9985 42.7994L7.73827 35.7259L20.9206 40.2345L21.6288 38.2031L3.90233 32.1379L2.89909 35.0243L15.5651 42.3464L1.00325 40.4684L0 43.3475L17.7191 49.4053L18.3756 47.5273Z" fill="#FF1741"/>
<path d="M23.7092 34.9951L21.2823 32.0941L24.1518 28.645L27.4862 30.4499L28.9394 28.7108L12.194 19.635L10.1802 22.0537L22.3593 36.6101L23.7092 34.9951ZM13.4186 22.821L22.4183 27.6512L19.9471 30.618L13.4186 22.821Z" fill="#FF1741"/>
<path d="M27.626 19.233C29.4702 19.3646 31.2111 19.4815 32.3029 21.0233C33.2693 22.3898 33.1955 23.4786 32.0742 24.2605C30.9529 25.0424 29.8907 24.7428 28.9243 23.3763L28.194 22.346L26.4383 23.5663L27.1096 24.509C27.9506 25.7001 28.9022 26.4381 29.9349 26.7012C30.2226 26.7743 30.5103 26.8108 30.798 26.8108C31.6242 26.8108 32.4652 26.5112 33.3209 25.9193C34.4717 25.1155 35.1135 24.1436 35.2241 23.0256C35.3274 21.966 34.9512 20.826 34.1102 19.6349C32.4947 17.3623 30.2669 17.2016 28.1129 17.0554C26.2539 16.9239 24.5056 16.807 23.4065 15.2578C22.4327 13.884 22.4991 12.8391 23.6056 12.0718C24.7122 11.3045 25.7302 11.5968 26.7187 12.9852L27.1318 13.5625L28.9096 12.3275L28.5629 11.8379C27.7219 10.6468 26.7703 9.90879 25.7375 9.63842C24.6458 9.35343 23.5097 9.60919 22.3737 10.4057C20.1533 11.9476 19.8951 14.169 21.6508 16.6462C23.2442 18.9261 25.472 19.0869 27.626 19.233Z" fill="#FF1741"/>
<path d="M34.5237 6.3209L40.6095 21.681L42.7267 20.8626L36.6408 5.50247L39.8202 4.26752L39.0604 2.33836L30.5845 5.634L31.3443 7.55585L34.5237 6.3209Z" fill="#FF1741"/>
<path d="M54.7952 18.4146L54.5296 16.3686L49.0118 17.0701L48.2003 10.8003L52.6854 10.2231L52.4272 8.1989L47.9347 8.76888L47.1528 2.75489L52.6633 2.05338L52.3977 0L44.6226 0.993806L47.0274 19.4085L54.7952 18.4146Z" fill="#FF1741"/>
<path d="M59.7077 10.9538L61.0429 11.1584C62.865 11.4361 63.492 12.2984 63.2043 14.1472L62.7617 16.997C62.5699 18.2539 62.6068 18.7362 62.7617 19.2989L62.7765 19.3646L65.0854 19.7154L65.0264 19.5546C64.7904 18.9043 64.8789 18.1808 65.0043 17.3697L65.4469 14.5418C65.7567 12.5322 65.2698 11.1804 63.942 10.435C65.4174 10.0916 66.2878 8.97352 66.5903 7.02244L66.819 5.54635C67.2616 2.68916 66.1108 1.08884 63.2929 0.657701L59.1028 0.0219574L56.2554 18.3781L58.5053 18.7216L59.7077 10.9538ZM61.0356 2.39686L62.924 2.68185C63.6396 2.79146 64.1191 3.06184 64.3772 3.51489C64.6354 3.95334 64.6945 4.55985 64.569 5.37828L64.2961 7.11744C63.9863 9.09775 62.9314 9.35351 61.4339 9.12698L60.0175 8.90775L61.0356 2.39686Z" fill="#FF1741"/>
<path d="M61.7512 75.1055L57.6792 76.3478L55.7464 70.1584L60.8069 68.6093L60.1947 66.629L52.958 68.8431L58.4906 86.5855L60.6668 85.9205L58.2988 78.3281L62.3708 77.0785L61.7512 75.1055Z" fill="#FF1741"/>
<path d="M71.4443 66.892C70.2566 64.1298 68.11 63.1725 65.5576 64.254C64.2593 64.802 63.4257 65.6278 63.0716 66.7093C62.7396 67.7396 62.8577 68.9453 63.4404 70.2826L67.21 79.0149C67.778 80.3303 68.5895 81.2656 69.5632 81.7406C70.0574 81.9817 70.5886 82.0987 71.1418 82.0987C71.7541 82.0987 72.4033 81.9525 73.0745 81.6675C75.6269 80.586 76.4089 78.3865 75.2212 75.6243L71.4443 66.892ZM72.2483 79.7676C71.6139 80.038 71.0385 80.038 70.5443 79.7749C70.0574 79.5118 69.6443 79.0003 69.3198 78.2403L65.4691 69.318C65.0117 68.2511 64.7904 66.8335 66.3838 66.1612C66.7084 66.0224 67.0182 65.9566 67.3059 65.9566C67.5936 65.9566 67.8591 66.0224 68.1026 66.1612C68.5821 66.4243 68.9952 66.9358 69.3198 67.6885L73.1704 76.6108C73.8344 78.16 73.5319 79.2268 72.2483 79.7676Z" fill="#FF1741"/>
<path d="M86.8619 71.9414L85.4603 69.4423C84.457 67.6666 83.2398 66.8993 81.7276 67.1112C82.6792 65.9421 82.6718 64.5317 81.6981 62.8072L80.9604 61.4992C79.5367 58.9708 77.6335 58.4081 75.1475 59.7819L71.4443 61.8207L80.5694 78.0431L82.5538 76.947L78.7031 70.0927L79.8834 69.4423C80.6653 69.0112 81.2924 68.8723 81.8383 69.0039C82.4358 69.15 82.9595 69.6323 83.439 70.4873L84.8554 73.0083C85.4824 74.119 85.8143 74.4771 86.2791 74.8206L86.3307 74.8571L88.3741 73.7318L88.2266 73.6368C87.6512 73.286 87.2676 72.6649 86.8619 71.9414ZM78.9392 67.6082L77.6851 68.295L74.4467 62.5368L76.1139 61.6161C76.7483 61.2653 77.2941 61.1923 77.781 61.3822C78.2531 61.5722 78.681 62.0107 79.0867 62.7414L79.9498 64.276C80.9383 66.0371 80.2596 66.8847 78.9392 67.6082Z" fill="#FF1741"/>
<path d="M89.6576 60.8339C87.806 60.6878 86.0504 60.5563 84.966 58.9998C83.9996 57.6187 84.0734 56.5737 85.1947 55.8138C85.7553 55.4265 86.3085 55.3169 86.8323 55.4849C87.3339 55.6457 87.8282 56.0768 88.3003 56.7491L88.706 57.3337L90.4912 56.1134L90.1445 55.6165C89.3109 54.4254 88.3667 53.68 87.3339 53.4023C86.2422 53.11 85.1061 53.3585 83.9627 54.1404C82.8193 54.9223 82.1849 55.8722 82.0816 56.9756C81.9784 58.0206 82.3546 59.1679 83.1955 60.3736C84.7963 62.6608 87.0167 62.8362 89.1707 63.0042C91.0149 63.1504 92.7559 63.2819 93.8329 64.8238C94.7919 66.1975 94.7033 67.2863 93.5821 68.0609C92.4534 68.8355 91.3985 68.5286 90.4322 67.1548L89.7092 66.1172L87.9462 67.3229L88.6101 68.2728C89.4437 69.4712 90.3879 70.2166 91.4207 70.487C91.7157 70.5674 92.0108 70.6039 92.3059 70.6039C93.1247 70.6039 93.9583 70.3116 94.8066 69.7343C95.9648 68.9451 96.6065 67.9732 96.7246 66.8552C96.8352 65.7956 96.4738 64.6557 95.6402 63.4573C94.0468 61.1701 91.819 61.002 89.6576 60.8339Z" fill="#FF1741"/>
</svg>
