<svg width="121" height="161" viewBox="0 0 121 161" fill="none" xmlns="http://www.w3.org/2000/svg">
<path d="M77.1025 98.8101L107.896 87.1191C108.809 86.7769 109.46 85.9692 109.612 85.0246L111.342 73.8812C111.591 72.3206 111.204 70.7189 110.29 69.4321L89.669 40.492C88.7832 39.2463 87.0394 38.9862 85.8077 39.9034L48.994 67.5018C47.7069 68.4738 47.5547 70.3219 48.6618 71.4855L74.1408 98.1667C74.9158 98.9333 76.0784 99.1934 77.1025 98.8101Z" fill="#FF1741"/>
<path d="M93.8992 115.293L103.027 109.873C104.56 108.954 105.613 107.436 105.887 105.704L107.789 93.6512C108.104 91.6668 106.092 90.0953 104.176 90.8144L80.7894 99.5512C79.0104 100.217 78.4904 102.428 79.8041 103.786L90.5465 114.854C91.4223 115.76 92.8182 115.946 93.8992 115.293Z" fill="#FF1741"/>
<path d="M85.7657 34.6806L60.964 0L28.0461 46.0154C27.3046 47.0433 27.4144 48.45 28.2933 49.3698L44.2098 65.9526C45.1574 66.94 46.6955 67.0618 47.7941 66.2502L85.2026 38.3191C86.3424 37.4534 86.6034 35.8438 85.7657 34.6806Z" fill="#FF1741"/>
<path d="M22.8892 52.4273L10.696 69.799C9.78116 71.0889 9.4125 72.6943 9.65827 74.2586L11.8156 88.3508C12.1297 90.3679 14.4646 91.3148 16.0894 90.0935L40.8718 71.1986C42.1416 70.2244 42.2918 68.372 41.1995 67.2056L27.0264 52.1254C25.8658 50.8904 23.8587 51.0276 22.8892 52.4273Z" fill="#FF1741"/>
<path d="M36.0304 121.249L57.2125 133.887C59.173 135.055 61.6271 135.055 63.5876 133.887L87.3609 119.691C88.8279 118.818 89.0884 116.844 87.923 115.636L76.1049 103.388C75.3509 102.609 74.1992 102.353 73.1847 102.743L36.4691 116.535C34.3852 117.314 34.1247 120.108 36.0304 121.249Z" fill="#FF1741"/>
<path d="M42.9145 72.096L14.2301 93.9203C13.4541 94.5216 13.0593 95.4918 13.2091 96.4621L14.6794 106.042C14.9516 107.818 15.9863 109.39 17.5247 110.319L27.6125 116.482C28.3205 116.92 29.1917 116.988 29.9541 116.701L68.9715 101.669C70.7413 100.985 71.2586 98.717 69.9517 97.3231L46.4677 72.3967C45.5284 71.3991 44.0036 71.2761 42.9145 72.096Z" fill="#FF1741"/>
</svg>
